<svg xmlns="http://www.w3.org/2000/svg" width="921" height="325" viewBox="0 0 921 325"><path fill="#5aa9f8" d="M150.282 5.14c2.888-.437 12.017-.161 14.996.02a159.4 159.4 0 0 1 74.083 23.928 157.06 157.06 0 0 1 69.436 97.558 153.66 153.66 0 0 1-12.188 104.333c-4.125 8.342-9.13 15.969-14.037 23.844-8.901-4.155-21.067-15.339-28.327-22.06a121.24 121.24 0 0 0 22.913-64.603c.615-10.945-1.031-20.729-8.594-29.134a33 33 0 0 0-23.125-11.109 34.75 34.75 0 0 0-25.241 8.911c-6.86 6.314-10.989 15.634-10.984 24.859.017 32.117 11.902 60.147 33.334 83.237 12.833 13.747 26.321 22.321 43.613 29.525-7.26 9.5-19.045 18.873-28.571 25.924-2.548-1.001-7.205-3.94-9.599-5.45a163.4 163.4 0 0 1-39.056-34.212c-37.53-44.681-59.561-135.792 9.067-163.964 12.084-4.96 25.571-4.706 38.326-3.568-16.825-22.107-33.718-36.341-60.24-45.675-28.784-10.13-53.672-8.242-82.3.79-9.294-9.894-17.07-18.31-28.581-25.9 21.626-11.506 40.78-15.633 65.075-17.254"/><path fill="#1e1d1d" d="m579.233 60.076 20.614.102-.021 97.134-20.564-.007c-.133-2.083-.066-4.341-.046-6.443-10.187 8.964-19.672 10.327-32.367 6.015a34 34 0 0 1-9.646-6.226 36.59 36.59 0 0 1-11.975-25.801c-1.306-30.401 30.743-52.011 54.036-30.352zm-13.713 79.406c9.311-1.657 15.502-10.563 13.807-19.863-1.695-9.301-10.629-15.453-19.927-13.722-9.245 1.722-15.357 10.591-13.672 19.839s10.534 15.394 19.792 13.746"/><path fill="#1e1d1d" d="M367.384 60.142c16.499.59 45.532-3.411 57.834 7.09 23.579 20.125 13.271 54.96-18.064 59.187-5.852.268-12.084.261-17.968.351.6 7.009.012 22.632.179 30.522-7.059-.171-14.805-.015-21.915-.005-.436-10.933-.119-24.039-.121-35.127zm21.834 46.002c6.771.114 15.074.854 21.147-1.912 5.709-5.089 8.152-12.386 2.873-19.266-3.528-4.597-14.488-4.842-20.068-4.303-1.233.064-3.026-.022-3.944.684-.779 7.07.324 17.446-.008 24.797"/><path fill="#1e1d1d" d="M469.02 86.437q.894-.075 1.789-.13c10.123-.62 15.795 1.762 23.251 8.363-.152-1.945-.135-4.553-.178-6.556l20.546-.03.013 69.203c-6.777-.094-13.781-.012-20.574-.011.021-1.309.272-5.129-.363-5.973l-.843.762c-10.526 8.523-26.7 9.761-37.338 1.736-25.36-19.129-19.135-61.141 13.697-67.364m11.051 53.033c9.276-1.635 15.475-10.468 13.856-19.742s-10.445-15.486-19.726-13.883c-9.303 1.606-15.536 10.455-13.913 19.751s10.486 15.512 19.783 13.874"/><path fill="#1e1d1d" d="M642.177 86.465c10.272-1.733 23.107 1.931 30.3 9.652 9.725 10.439 10.051 21.743 9.715 35.088-6.055-.521-14.106-.35-20.28-.361q-14.88-.127-29.759.161.125.206.255.409c7.914 12.461 18.972 11.772 30.307 4.503 3.417 1.605 7.161 3.851 10.479 5.734l5.993 3.643c-11.958 16.438-38.329 18.193-54.267 6.636a34 34 0 0 1-13.78-22.772c-3.293-21.618 9.163-39.572 31.037-42.693m-10.302 29.094c6.046.013 12.392-.075 18.412.067l12.068-.132c-3.813-8.658-8.328-11.955-17.977-11.083-7.479 2.315-9.447 3.831-12.503 11.148"/><path fill="#5aa9f8" d="M792.456 201.498c9.34-.585 12.508.651 19.031 7.415q.144-.154.293-.303c12.753-12.814 34.834-7.906 38.343 8.973 2.43 11.691 1.219 32.253 1.143 44.559l-17.308.116c-.302-8.7-.099-17.126.113-26.325.79-6.631-.784-19.351-10.093-18.663-11.328.837-8.554 28.664-8.214 35.623l.144 9.236-17.711.113c-.413-12.037.724-24.314-.385-36.284-.608-4.294-3.442-8.489-8.101-8.45-11.025.091-9.982 13.536-9.914 20.993.073 7.984.128 15.751.163 23.614-5.748.164-11.778.094-17.548.112-.285-5.91-.103-13.464-.115-19.469l.119-39.908 17.655-.04-.02 5.58c4.274-4.602 6.402-5.608 12.405-6.892"/><path fill="#1e1d1d" d="M403.821 177.735c16.736-.859 28.172 6.031 38.094 18.905a915 915 0 0 1-16.077 9.133c-4.704-5.413-9.206-8.798-16.548-9.661-35.717-4.201-37.069 51.71-1.184 49.29 8.877-.599 11.011-3.775 17.451-8.961 1.673-.292 1.431-.07 3.203.723l13.021 7.511c-12.28 21.698-44.653 24.782-63.307 9.478a42.05 42.05 0 0 1-15.074-28.514c-2.064-21.906 10.45-42.011 32.608-46.926 2.49-.553 5.262-.74 7.813-.978"/><path fill="#1e1d1d" d="M653.675 201.523c15.86-2.469 30.677 10.375 32.537 25.718.549 4.531.338 7.94-.015 12.415-13.983-.246-28.578-.047-42.602-.046 7.074 10.548 15.799 10.819 26.063 4.216 3.14 1.443 7.009 3.824 10.066 5.591.268.228 3.604 2.149 4.105 2.443a32.6 32.6 0 0 1-20.215 11.551c-44.21 6.755-54.038-55.498-9.939-61.888m-10.38 24.815q8.323.265 16.65.186l9.539-.052c-3.979-7.901-7.214-10.264-16.525-9.247-4.391 1.435-6.683 3.086-8.826 7.331a38 38 0 0 0-.838 1.782"/><path fill="#1e1d1d" d="M474.875 201.539c1.134-.145 3.413-.215 4.549-.187a28.9 28.9 0 0 1 20.235 8.908c8.216 8.754 8.715 18.191 8.402 29.325-13.947-.234-28.818.056-42.837.089 7.255 10.836 15.683 10.648 26.22 4.036l9.289 5.394c1.231.672 3.282 2.068 4.532 2.865-14.808 20.465-54.817 13.547-57.886-13.522-2.288-20.185 7.457-33.937 27.496-36.908m-10.118 24.999 16.927-.025c3.048-.01 6.501-.095 9.518-.026-4.305-8.001-7.545-10.627-17.13-9.237-5.633 2.511-6.726 3.727-9.315 9.288"/><path fill="#1e1d1d" d="M549.319 201.506c25.479-2.909 26.101 24.279 25.001 41.724-.373 5.927-.019 12.994.093 18.992-5.591-.217-11.974-.055-17.622-.037.023-5.114.383-10.323.303-15.429-.184-11.874 2.675-36.335-17.523-27.464q-.722.608-1.384 1.277c-4.955 5.07-3.156 33.648-3.029 41.669-5.593-.187-11.916-.047-17.565-.048-.33-19.463-.044-39.66-.023-59.159 5.72.122 11.641.051 17.377.057l.088 5.203c4.801-4.556 7.935-5.812 14.284-6.785"/><path fill="#5aa9f8" d="M898.651 202.856q9.795-.072 19.588.209c-6.969 9.271-13.975 19.507-20.719 28.989 6.185 9.861 14.467 19.881 20.779 29.979q-9.86.065-19.719-.06a648 648 0 0 1-11.087-15.535c-3.094 4.678-7.625 11.241-11.014 15.602-5.314.365-14.573.131-20.079.171a38 38 0 0 1 2.305-3.468c6.507-8.738 12.366-18.017 18.839-26.762-5.542-6.309-15.55-21.532-20.682-28.913 6.683.089 13.245-.11 19.968.144 2.377 2.319 8.56 11.278 10.82 14.413 2.265-3.224 8.248-13.039 11.001-14.769"/><path fill="#1e1d1d" d="M693.455 60.076a699 699 0 0 1 20.405.062c-.153 31.543-.396 65.672.295 97.036-1.56.274-18.325.167-20.672.171-.451-32.067-.037-65.127-.028-97.27"/><path fill="#1e1d1d" d="m606.128 187.074.96-.041c1.38 1.366.924 13.502.934 16.092l12.027-.104c.218 5.599.071 11.206-.438 16.786l-11.705.028c.051 3.711 0 8.08-.219 11.734-.704 11.778.318 14.732 12.382 14.852l.229 16.031q-6.253.114-12.506.008c-22.143-2.981-18.004-25.748-17.349-42.433-2.827-.22-6.309-.191-9.189-.244l-.207-16.876c2.802.204 6.548.082 9.422.07l-.004-11.236a382 382 0 0 1 15.663-4.667"/><path fill="#1e1d1d" d="M729.246 201.978c.542-.099.85.161 1.351.432 1.264 2.474.768 15.709.748 19.262-10.749-.748-17.849 4.304-18.057 15.519-.152 8.263-.359 16.755.326 25.006a741 741 0 0 0-17.385-.035l-.089-6.275-.082-52.859c5.704.142 11.804.026 17.538.017a223 223 0 0 1-.38 10.219 75 75 0 0 1 2.309-3.342c4.04-5.422 7.229-6.979 13.721-7.944"/><path fill="#5aa9f8" d="M738.159 241.745c6.029-1.244 11.926 2.628 13.18 8.652s-2.611 11.925-8.635 13.187c-6.038 1.265-11.957-2.608-13.213-8.645s2.627-11.947 8.668-13.194"/><path fill="#5aa9f8" d="M54.97 23.158c5.148 2.48 12.893 7.713 17.6 11.086a154.25 154.25 0 0 1 57.116 76.372c9.016 25.794 13.445 56.445 1.273 82.075-12.703 26.748-45.955 43.838-75.167 37.298 4.538 5.841 8.41 10.892 13.594 16.213a118.67 118.67 0 0 0 70.691 35.257 119.3 119.3 0 0 0 58.138-6.759c5.499 6.247 9.86 10.831 16.139 16.329 3.701 3.242 8.979 7.095 12.396 10.288-40.158 18.887-81.449 22.958-123.664 7.786a158.23 158.23 0 0 1-89.756-82.536C6.85 212.765 3.267 199.144.657 184.174A22 22 0 0 0 0 181.431v-41.019c2.127-6.348 2.91-13.881 4.579-20.127 3.826-14.323 15.462-40.519 25.194-51.566 10.988 5.98 18.978 13.373 27.946 21.81-12.42 18.974-20.353 35.941-22.424 58.896-.62 6.866-1.008 12.869.434 19.781a32.03 32.03 0 0 0 14.003 20.578c7.534 4.907 17.132 6.926 25.968 5.045a33.77 33.77 0 0 0 21.469-14.643c8.159-12.769 6.177-29.303 3.119-43.373-8.789-40.428-35.713-71.869-73.659-88.05 7.523-8.542 18.58-19.514 28.34-25.605"/></svg>