<?xml version="1.0" encoding="utf-8"?>
<!-- Generator: Adobe Illustrator 16.0.0, SVG Export Plug-In . SVG Version: 6.00 Build 0)  -->
<!DOCTYPE svg PUBLIC "-//W3C//DTD SVG 1.1//EN" "http://www.w3.org/Graphics/SVG/1.1/DTD/svg11.dtd">
<svg version="1.1" id="Logo" xmlns="http://www.w3.org/2000/svg" xmlns:xlink="http://www.w3.org/1999/xlink" x="0px" y="0px"
	 width="220.915px" height="75.265px" viewBox="0 0 220.915 75.265" enable-background="new 0 0 220.915 75.265"
	 xml:space="preserve">
<g id="Name">
	<path fill="#CBDB29" d="M105.536,21.181c0,4.449-3.579,8.025-8.194,8.025h-3.51v7.359H88.48v-23.41h8.861
		C101.957,13.155,105.536,16.733,105.536,21.181z M100.186,21.181c0-1.705-1.207-3.01-2.844-3.01h-3.51v6.02h3.51
		C98.979,24.19,100.186,22.886,100.186,21.181z"/>
	<path fill="#CBDB29" d="M123.86,19.845v16.721h-5.018v-1.574c-1.104,1.271-2.743,2.043-4.981,2.043
		c-4.382,0-7.993-3.848-7.993-8.83c0-4.984,3.611-8.83,7.993-8.83c2.238,0,3.878,0.771,4.981,2.041v-1.57H123.86z M118.843,28.204
		c0-2.508-1.671-4.08-3.978-4.08c-2.309,0-3.98,1.572-3.98,4.08s1.671,4.082,3.98,4.082
		C117.172,32.286,118.843,30.712,118.843,28.204z"/>
	<path fill="#CBDB29" d="M144.357,13.155v23.41h-5.017v-1.574c-1.104,1.271-2.742,2.043-4.982,2.043
		c-4.382,0-7.992-3.848-7.992-8.83c0-4.984,3.61-8.83,7.992-8.83c2.24,0,3.878,0.771,4.982,2.041v-8.26H144.357z M139.341,28.204
		c0-2.508-1.672-4.08-3.979-4.08c-2.306,0-3.98,1.572-3.98,4.08s1.675,4.082,3.98,4.082
		C137.669,32.286,139.341,30.712,139.341,28.204z"/>
	<path fill="#CBDB29" d="M156.193,32.552c1.371,0,2.541-0.535,3.209-1.27l4.014,2.305c-1.637,2.275-4.112,3.447-7.289,3.447
		c-5.719,0-9.265-3.848-9.265-8.83c0-4.984,3.613-8.83,8.896-8.83c4.884,0,8.494,3.779,8.494,8.83c0,0.701-0.066,1.371-0.2,2.006
		H152.18C152.815,31.95,154.354,32.552,156.193,32.552z M159.271,26.466c-0.537-1.939-2.041-2.643-3.547-2.643
		c-1.905,0-3.176,0.938-3.645,2.643H159.271z"/>
	<path fill="#CBDB29" d="M166.758,13.155h5.018v23.41h-5.018V13.155z"/>
	<path fill="#CBDB29" d="M87.477,51.728c0-5.877,4.365-10.383,10.382-10.383c3.624,0,6.819,1.795,8.56,4.621l-3.938,2.281
		c-0.883-1.541-2.595-2.453-4.622-2.453c-3.535,0-5.819,2.367-5.819,5.934s2.284,5.934,5.819,5.934c2.027,0,3.767-0.912,4.622-2.453
		l3.938,2.283c-1.711,2.822-4.907,4.621-8.56,4.621C91.841,62.112,87.477,57.604,87.477,51.728z"/>
	<path fill="#CBDB29" d="M115.517,58.288c1.17,0,2.168-0.455,2.739-1.082l3.424,1.969c-1.398,1.939-3.51,2.938-6.221,2.938
		c-4.878,0-7.902-3.281-7.902-7.531s3.081-7.531,7.589-7.531c4.165,0,7.244,3.223,7.244,7.531c0,0.598-0.057,1.168-0.168,1.711
		h-10.128C112.637,57.774,113.949,58.288,115.517,58.288z M118.143,53.099c-0.458-1.654-1.74-2.256-3.025-2.256
		c-1.627,0-2.709,0.801-3.109,2.256H118.143z"/>
	<path fill="#CBDB29" d="M138.224,52.956v8.758h-4.28v-8.131c0-1.77-1.112-2.596-2.48-2.596c-1.57,0-2.654,0.912-2.654,2.938v7.789
		h-4.277V47.448h4.277v1.342c0.77-1.057,2.196-1.74,4.08-1.74C135.771,47.05,138.224,49.103,138.224,52.956z"/>
	<path fill="#CBDB29" d="M146.295,51.558v5.049c0,1.227,1.054,1.34,2.938,1.227v3.881c-5.592,0.568-7.217-1.113-7.217-5.107v-5.049
		h-2.283v-4.109h2.283v-2.707l4.279-1.285v3.992h2.938v4.109H146.295z"/>
	<path fill="#CBDB29" d="M158.332,58.288c1.169,0,2.168-0.455,2.738-1.082l3.424,1.969c-1.397,1.939-3.508,2.938-6.221,2.938
		c-4.877,0-7.9-3.281-7.9-7.531s3.08-7.531,7.586-7.531c4.167,0,7.248,3.223,7.248,7.531c0,0.598-0.057,1.168-0.172,1.711h-10.126
		C155.449,57.774,156.764,58.288,158.332,58.288z M160.957,53.099c-0.457-1.654-1.74-2.256-3.023-2.256
		c-1.627,0-2.71,0.801-3.111,2.256H160.957z"/>
	<path fill="#CBDB29" d="M175.902,47.165v4.848c-1.768-0.285-4.279,0.43-4.279,3.252v6.449h-4.279V47.448h4.279v2.541
		C172.194,48.075,174.105,47.165,175.902,47.165z"/>
	<path fill="#CBDB29" d="M175.332,59.401c0-1.482,1.227-2.711,2.709-2.711c1.484,0,2.71,1.229,2.71,2.711
		c0,1.484-1.226,2.711-2.71,2.711C176.559,62.112,175.332,60.886,175.332,59.401z"/>
	<path fill="#CBDB29" d="M204.713,52.956v8.758h-4.279v-8.389c0-1.426-0.684-2.338-2.053-2.338c-1.429,0-2.227,0.998-2.227,2.68
		v8.047h-4.279v-8.389c0-1.426-0.684-2.338-2.053-2.338c-1.426,0-2.225,0.998-2.225,2.68v8.047h-4.279V47.448h4.279v1.313
		c0.656-0.971,1.909-1.711,3.822-1.711c1.683,0,2.938,0.684,3.736,1.883c0.799-1.143,2.111-1.883,4.137-1.883
		C202.574,47.05,204.713,49.39,204.713,52.956z"/>
	<path fill="#CBDB29" d="M216.008,61.714l-2.653-3.768l-2.652,3.768h-4.906l5.105-7.248l-4.935-7.018h4.906l2.481,3.539l2.483-3.539
		h4.906l-4.936,7.018l5.106,7.248H216.008z"/>
</g>
<g id="Icon">
	<g>
		<g>
			<path fill="#CBDB29" d="M47.852,64.808c-3.18,1.201-6.623,1.859-10.217,1.859c-9.897,0-18.649-4.98-23.894-12.563
				c0.977,0.178,1.98,0.275,3.007,0.275c9.234,0,16.747-7.512,16.747-16.748c0-14.393-8.127-26.92-20.03-33.248
				c-2.602,1.747-4.942,3.854-6.949,6.248c10.752,4.258,18.381,14.752,18.381,27c0,4.494-3.655,8.15-8.148,8.15
				c-4.494,0-8.149-3.656-8.149-8.15c0-6.348,2.051-12.221,5.523-17.004c-1.968-2.092-4.232-3.9-6.739-5.336
				C2.748,21.544,0,29.272,0,37.632c0,0.289,0.007,0.578,0.022,0.861c0.46,20.355,17.15,36.771,37.612,36.771
				c6.156,0,11.967-1.494,17.102-4.125C52.187,69.321,49.875,67.19,47.852,64.808z"/>
		</g>
		<g>
			<path fill="#CBDB29" d="M68.865,64.679c-10.811-4.23-18.493-14.754-18.493-27.047c0-4.492,3.656-8.148,8.148-8.148
				c4.494,0,8.15,3.656,8.15,8.148c0,6.348-2.052,12.223-5.523,17.006c1.968,2.092,4.231,3.9,6.739,5.338
				c4.634-6.254,7.382-13.982,7.382-22.344c0-0.289-0.007-0.576-0.021-0.859C74.786,16.417,58.097,0,37.634,0
				c-6.156,0-11.966,1.494-17.102,4.126c2.55,1.82,4.862,3.947,6.885,6.332c3.18-1.199,6.622-1.859,10.217-1.859
				c9.897,0,18.649,4.98,23.894,12.563c-0.977-0.178-1.98-0.275-3.008-0.275c-9.234,0-16.746,7.512-16.746,16.746
				c0,14.428,8.163,26.979,20.111,33.293C64.498,69.181,66.849,67.075,68.865,64.679z"/>
		</g>
	</g>
</g>
</svg>
