<svg xmlns="http://www.w3.org/2000/svg" xmlns:xlink="http://www.w3.org/1999/xlink" id="Layer_1" x="0px" y="0px" viewBox="0 0 243.31 100.8" style="enable-background:new 0 0 243.31 100.8;" xml:space="preserve"><style type="text/css">	.st0{fill:#FFFFFF;}	.st1{fill:#CBDB29;}</style><g>	<g id="Name">		<path class="st0" d="M116.73,33.95c0,4.45-3.58,8.03-8.19,8.03h-3.51v7.36h-5.35V25.92h8.86   C113.15,25.92,116.73,29.5,116.73,33.95z M111.38,33.95c0-1.71-1.21-3.01-2.84-3.01h-3.51v6.02h3.51   C110.17,36.96,111.38,35.65,111.38,33.95z"></path>		<path class="st0" d="M135.06,32.61v16.72h-5.02v-1.57c-1.1,1.27-2.74,2.04-4.98,2.04c-4.38,0-7.99-3.85-7.99-8.83   c0-4.98,3.61-8.83,7.99-8.83c2.24,0,3.88,0.77,4.98,2.04v-1.57H135.06z M130.04,40.97c0-2.51-1.67-4.08-3.98-4.08   c-2.31,0-3.98,1.57-3.98,4.08c0,2.51,1.67,4.08,3.98,4.08C128.37,45.05,130.04,43.48,130.04,40.97z"></path>		<path class="st0" d="M155.55,25.92v23.41h-5.02v-1.57c-1.1,1.27-2.74,2.04-4.98,2.04c-4.38,0-7.99-3.85-7.99-8.83   c0-4.98,3.61-8.83,7.99-8.83c2.24,0,3.88,0.77,4.98,2.04v-8.26H155.55z M150.54,40.97c0-2.51-1.67-4.08-3.98-4.08   c-2.31,0-3.98,1.57-3.98,4.08c0,2.51,1.67,4.08,3.98,4.08C148.86,45.05,150.54,43.48,150.54,40.97z"></path>		<path class="st0" d="M167.39,45.32c1.37,0,2.54-0.54,3.21-1.27l4.01,2.3c-1.64,2.28-4.11,3.45-7.29,3.45   c-5.72,0-9.26-3.85-9.26-8.83c0-4.98,3.61-8.83,8.9-8.83c4.88,0,8.49,3.78,8.49,8.83c0,0.7-0.07,1.37-0.2,2.01h-11.87   C164.01,44.72,165.55,45.32,167.39,45.32z M170.47,39.23c-0.54-1.94-2.04-2.64-3.55-2.64c-1.91,0-3.18,0.94-3.64,2.64H170.47z"></path>		<path class="st0" d="M177.95,25.92h5.02v23.41h-5.02V25.92z"></path>		<path class="st0" d="M98.67,64.49c0-5.88,4.36-10.38,10.38-10.38c3.62,0,6.82,1.79,8.56,4.62l-3.94,2.28   c-0.88-1.54-2.6-2.45-4.62-2.45c-3.53,0-5.82,2.37-5.82,5.93c0,3.57,2.28,5.93,5.82,5.93c2.03,0,3.77-0.91,4.62-2.45l3.94,2.28   c-1.71,2.82-4.91,4.62-8.56,4.62C103.04,74.88,98.67,70.37,98.67,64.49z"></path>		<path class="st0" d="M126.71,71.05c1.17,0,2.17-0.46,2.74-1.08l3.42,1.97c-1.4,1.94-3.51,2.94-6.22,2.94   c-4.88,0-7.9-3.28-7.9-7.53s3.08-7.53,7.59-7.53c4.17,0,7.24,3.22,7.24,7.53c0,0.6-0.06,1.17-0.17,1.71h-10.13   C123.83,70.54,125.14,71.05,126.71,71.05z M129.34,65.86c-0.46-1.65-1.74-2.26-3.03-2.26c-1.63,0-2.71,0.8-3.11,2.26H129.34z"></path>		<path class="st0" d="M149.42,65.72v8.76h-4.28v-8.13c0-1.77-1.11-2.6-2.48-2.6c-1.57,0-2.65,0.91-2.65,2.94v7.79h-4.28V60.21H140   v1.34c0.77-1.06,2.2-1.74,4.08-1.74C146.97,59.82,149.42,61.87,149.42,65.72z"></path>		<path class="st0" d="M157.49,64.32v5.05c0,1.23,1.05,1.34,2.94,1.23v3.88c-5.59,0.57-7.22-1.11-7.22-5.11v-5.05h-2.28v-4.11h2.28   v-2.71l4.28-1.29v3.99h2.94v4.11H157.49z"></path>		<path class="st0" d="M169.53,71.05c1.17,0,2.17-0.46,2.74-1.08l3.42,1.97c-1.4,1.94-3.51,2.94-6.22,2.94   c-4.88,0-7.9-3.28-7.9-7.53s3.08-7.53,7.59-7.53c4.17,0,7.25,3.22,7.25,7.53c0,0.6-0.06,1.17-0.17,1.71H166.1   C166.64,70.54,167.96,71.05,169.53,71.05z M172.15,65.86c-0.46-1.65-1.74-2.26-3.02-2.26c-1.63,0-2.71,0.8-3.11,2.26H172.15z"></path>		<path class="st0" d="M187.1,59.93v4.85c-1.77-0.29-4.28,0.43-4.28,3.25v6.45h-4.28V60.21h4.28v2.54   C183.39,60.84,185.3,59.93,187.1,59.93z"></path>		<path class="st1" d="M186.53,72.17c0-1.48,1.23-2.71,2.71-2.71c1.48,0,2.71,1.23,2.71,2.71c0,1.48-1.23,2.71-2.71,2.71   C187.75,74.88,186.53,73.65,186.53,72.17z"></path>		<path class="st1" d="M215.91,65.72v8.76h-4.28v-8.39c0-1.43-0.68-2.34-2.05-2.34c-1.43,0-2.23,1-2.23,2.68v8.05h-4.28v-8.39   c0-1.43-0.68-2.34-2.05-2.34c-1.43,0-2.22,1-2.22,2.68v8.05h-4.28V60.21h4.28v1.31c0.66-0.97,1.91-1.71,3.82-1.71   c1.68,0,2.94,0.68,3.74,1.88c0.8-1.14,2.11-1.88,4.14-1.88C213.77,59.82,215.91,62.16,215.91,65.72z"></path>		<path class="st1" d="M227.2,74.48l-2.65-3.77l-2.65,3.77h-4.91l5.11-7.25l-4.93-7.02h4.91l2.48,3.54l2.48-3.54h4.91L227,67.23   l5.11,7.25H227.2z"></path>	</g>	<g id="Icon">		<g>			<g>				<path class="st1" d="M59.05,77.57c-3.18,1.2-6.62,1.86-10.22,1.86c-9.9,0-18.65-4.98-23.89-12.56c0.98,0.18,1.98,0.28,3.01,0.28     c9.23,0,16.75-7.51,16.75-16.75c0-14.39-8.13-26.92-20.03-33.25c-2.6,1.75-4.94,3.85-6.95,6.25c10.75,4.26,18.38,14.75,18.38,27     c0,4.49-3.66,8.15-8.15,8.15c-4.49,0-8.15-3.66-8.15-8.15c0-6.35,2.05-12.22,5.52-17c-1.97-2.09-4.23-3.9-6.74-5.34     c-4.63,6.25-7.38,13.98-7.38,22.34c0,0.29,0.01,0.58,0.02,0.86c0.46,20.36,17.15,36.77,37.61,36.77c6.16,0,11.97-1.49,17.1-4.12     C63.38,82.09,61.07,79.96,59.05,77.57z"></path>			</g>			<g>				<path class="st1" d="M80.06,77.44C69.25,73.21,61.57,62.69,61.57,50.4c0-4.49,3.66-8.15,8.15-8.15c4.49,0,8.15,3.66,8.15,8.15     c0,6.35-2.05,12.22-5.52,17.01c1.97,2.09,4.23,3.9,6.74,5.34c4.63-6.25,7.38-13.98,7.38-22.34c0-0.29-0.01-0.58-0.02-0.86     c-0.46-20.36-17.15-36.77-37.61-36.77c-6.16,0-11.97,1.49-17.1,4.13c2.55,1.82,4.86,3.95,6.88,6.33     c3.18-1.2,6.62-1.86,10.22-1.86c9.9,0,18.65,4.98,23.89,12.56c-0.98-0.18-1.98-0.28-3.01-0.28c-9.23,0-16.75,7.51-16.75,16.75     c0,14.43,8.16,26.98,20.11,33.29C75.69,81.95,78.04,79.84,80.06,77.44z"></path>			</g>		</g>	</g></g></svg>